 http://img38.imageshack.us/img38/1205/darkfields2009.jpg

Country.......: USA
Genre.........: Horror
Date release..: 2009 [World]
Director......: Douglas Schulze
Writers.......: Kurt Eli Mayry, Douglas Schulze
Duration......: 111 min.
More..........: http://www.imdb.com/title/tt1212023
Trailer.......: http://www.imdb.com/video/screenplay/vi1340316441
Trailer.......:

Pilot :
A farmer unearths an old top hat on his property and with it an ancient Indian curse that lays waste to all the farmers crops. All of the adults of the farming community are afflicted by a strange sickness that slowly dries them up until they are dust. It is only when the farmer communes with the hat does he find what it is that will save them all.

Cats :
David Carradine   	 ...  	Clive Jonis
Richard Lynch 	... 	Karl Lumis
Dee Wallace 	... 	Jean Applebe
Christopher Bondy 	... 	The Reverend
Derek Brandon 	... 	Daniel Jonis
David G.B. Brown 	... 	Boyfriend
James Howard Carr 	... 	Ben Wheeler
J.J. Chidiac 	... 	Simon Wheeler
Paula Ciccone 	... 	Eleanor Lumis
Colin Crenshaw 	... 	Jack Lumis
Hope Crenshaw 	... 	Church goer
Jimmy Doom 	... 	Horace
William C. Fox 	... 	Cursed Farmer
William Giordano 	... 	Kyle Lumis
Sasha Higgins 	... 	Cari 

Data Technical :
!!! SAMPLE !!!
Audio.....: English
Subtitles.: English .srt, Romanian .srt
Format                           : AVI
Format/Info                      : Audio Video Interleave
File size                        : 701 MiB
Duration                         : 1h 50mn
Overall bit rate                 : 885 Kbps
Writing application              : VirtualDubMod 1.5.10.2 (build 2540/release)
Writing library                  : VirtualDubMod build 2540/release
Video
ID                               : 0
Format                           : MPEG-4 Visual
Format profile                   : Advanced Simple@L5
Format settings, BVOP            : Yes
Format settings, QPel            : No
Format settings, GMC             : No warppoints
Format settings, Matrix          : Default (H.263)
Codec ID                         : XVID
Codec ID/Hint                    : XviD
Duration                         : 1h 50mn
Bit rate                         : 743 Kbps
Width                            : 608 pixels
Height                           : 320 pixels
Display aspect ratio             : 1.900
Frame rate                       : 23.976 fps
Color space                      : YUV
Chroma subsampling               : 4:2:0
Bit depth                        : 8 bits
Scan type                        : Progressive
Bits/(Pixel*Frame)               : 0.159
Stream size                      : 589 MiB (84%)
Writing library                  : XviD 1.2.1 (UTC 2008-12-04)
Audio
ID                               : 1
Format                           : MPEG Audio
Format version                   : Version 1
Format profile                   : Layer 3
Mode                             : Joint stereo
Mode extension                   : MS Stereo
Codec ID                         : 55
Codec ID/Hint                    : MP3
Duration                         : 1h 50mn
Bit rate mode                    : Variable
Bit rate                         : 128 Kbps
Channel(s)                       : 2 channels
Sampling rate                    : 48.0 KHz
Stream size                      : 102 MiB (15%)
Alignment                        : Aligned on interleaves
Interleave, duration             : 24 ms (0.58 video frame)
Interleave, preload duration     : 143 ms
Writing library                  : LAME3.90.
Encoding settings                : -m j -V 4 -q 2 -lowpass 17.6 --abr 128

Screen : 
http://img853.imageshack.us/img853/4567/darkfields2009s1.jpg 
http://img703.imageshack.us/img703/8462/darkfields2009s2.jpg 
http://img651.imageshack.us/img651/6325/darkfields2009s3.jpg 
http://img862.imageshack.us/img862/6109/darkfields2009s4.jpg 
http://img34.imageshack.us/img34/2603/darkfields2009s5.jpg